<svg xmlns="http://www.w3.org/2000/svg" version="1.1" xmlns:xlink="http://www.w3.org/1999/xlink" xmlns:svgjs="http://svgjs.dev/svgjs" width="2000" height="1252" viewBox="0 0 2000 1252"><g transform="matrix(1,0,0,1,-1.2121212121212466,-2.01935483870966)"><svg viewBox="0 0 396 248" data-background-color="#000000" preserveAspectRatio="xMidYMid meet" height="1252" width="2000" xmlns="http://www.w3.org/2000/svg" xmlns:xlink="http://www.w3.org/1999/xlink"><g id="tight-bounds" transform="matrix(1,0,0,1,0.2400000000000091,0.4000000000000057)"><svg viewBox="0 0 395.52 247.2" height="247.2" width="395.52"><rect width="395.52" height="247.2" fill="url(#c6668cac-22ed-4fa7-b2d1-ab5cf61f1577)" mask="url(#b153f503-7535-452e-95eb-031680bd2f76)" data-fill-palette-color="tertiary"></rect><g><svg></svg></g><g><svg viewBox="0 0 395.52 247.2" height="247.2" width="395.52"><g transform="matrix(1,0,0,1,92.05683947909526,47.215199999999996)"><svg viewBox="0 0 211.40632104180946 152.7696" height="152.7696" width="211.40632104180946"><g><svg viewBox="0 0 211.40632104180946 152.7696" height="152.7696" width="211.40632104180946"><g><svg viewBox="0 0 211.40632104180946 152.7696" height="152.7696" width="211.40632104180946"><g><svg viewBox="0 0 211.40632104180946 152.7696" height="152.7696" width="211.40632104180946"><g id="textblocktransform"><svg viewBox="0 0 211.40632104180946 152.7696" height="152.7696" width="211.40632104180946" id="textblock"><g><svg viewBox="0 0 211.40632104180946 152.7696" height="152.7696" width="211.40632104180946"><g transform="matrix(1,0,0,1,0,0)"><svg width="211.40632104180946" viewBox="1.46 -34.96 49.3 35.62" height="152.7696" data-palette-color="url(#1e90bb17-86c5-4732-8854-39f053582af1)"></svg></g></svg></g></svg></g></svg></g></svg></g></svg></g></svg></g><g><path d="M229.303 0c68.262 0 123.6 55.338 123.6 123.6 0 68.262-55.338 123.6-123.6 123.6-30.402 0-58.24-10.976-79.768-29.183l11.147 0c19.26 14.022 42.974 22.294 68.621 22.295 64.458 0 116.712-52.254 116.712-116.712 0-64.458-52.254-116.712-116.712-116.712-25.647 0-49.361 8.272-68.621 22.295l-11.147 0c21.528-18.206 49.366-29.183 79.768-29.183z" fill="url(#c6668cac-22ed-4fa7-b2d1-ab5cf61f1577)" stroke="transparent" data-fill-palette-color="tertiary"></path></g></svg></g><defs></defs><mask id="d4dea1a4-a16d-4678-9942-6132ed10cc02"><g id="SvgjsG1008"><svg viewBox="0 0 395.52 247.2" height="247.2" width="395.52"><g><svg></svg></g><g><svg viewBox="0 0 395.52 247.2" height="247.2" width="395.52"><g transform="matrix(1,0,0,1,92.05683947909526,47.215199999999996)"><svg viewBox="0 0 211.40632104180946 152.7696" height="152.7696" width="211.40632104180946"><g><svg viewBox="0 0 211.40632104180946 152.7696" height="152.7696" width="211.40632104180946"><g><svg viewBox="0 0 211.40632104180946 152.7696" height="152.7696" width="211.40632104180946"><g><svg viewBox="0 0 211.40632104180946 152.7696" height="152.7696" width="211.40632104180946"><g id="SvgjsG1007"><svg viewBox="0 0 211.40632104180946 152.7696" height="152.7696" width="211.40632104180946" id="SvgjsSvg1006"><g><svg viewBox="0 0 211.40632104180946 152.7696" height="152.7696" width="211.40632104180946"><g transform="matrix(1,0,0,1,0,0)"><svg width="211.40632104180946" viewBox="1.46 -34.96 49.3 35.62" height="152.7696" data-palette-color="url(#1e90bb17-86c5-4732-8854-39f053582af1)"><path d="M9.72-3L9.72-3Q8.96-1.54 7.5-0.49 6.03 0.56 4.27 0.56L4.27 0.56Q3.64 0.56 3.19 0.24 2.73-0.07 2.47-0.85L2.47-0.85 1.46-3.86Q1.83-4.03 2.6-4.28 3.37-4.54 4.24-5.07 5.1-5.59 5.71-6.54L5.71-6.54Q6.25-7.35 6.76-9.53 7.28-11.72 7.74-14.7 8.2-17.68 8.56-20.87 8.91-24.07 9.13-26.99 9.35-29.91 9.38-31.91L9.38-31.91 4.61-31.91 4.61-33.84Q5.05-34.08 6.14-34.34 7.23-34.59 8.52-34.78 9.81-34.96 10.82-34.96L10.82-34.96Q12.82-34.96 13.79-34.75 14.77-34.55 15.38-33.64L15.38-33.64Q16.85-30.3 18.3-26.49 19.75-22.68 21.06-18.99 22.36-15.31 23.36-12.28 24.37-9.25 24.94-7.45 25.51-5.64 25.51-5.64L25.51-5.64Q27.91-13.01 29.96-18.99 32.01-24.98 33.52-28.94 35.03-32.91 35.77-34.16L35.77-34.16Q35.74-34.2 36.4-34.4 37.06-34.59 37.98-34.78 38.89-34.96 39.62-34.96L39.62-34.96Q40.77-34.96 41.16-34.5 41.55-34.03 41.72-33.11L41.72-33.11 45.68-3.3 50.32-4 50.76-2.2Q50.07-1.54 48.66-0.88 47.24-0.22 45.62 0.22 43.99 0.66 42.63 0.66L42.63 0.66Q41.8 0.66 41 0.29 40.21-0.07 40.06-1.2L40.06-1.2 37.01-26.25Q34.77-19.78 33.14-15.28 31.52-10.79 30.41-7.91 29.3-5.03 28.6-3.39 27.91-1.76 27.55-1.04 27.2-0.32 27.06-0.16 26.93 0 26.93 0L26.93 0 24.27 0Q23.12 0 22.47-0.4 21.83-0.81 21.36-2L21.36-2Q18.16-10.52 16.33-15.84 14.5-21.17 13.73-23.66 12.96-26.15 12.96-26.15L12.96-26.15Q12.79-23.05 12.56-19.68 12.33-16.31 11.96-13.11 11.6-9.91 11.06-7.28 10.52-4.64 9.72-3Z" opacity="1" transform="matrix(1,0,0,1,0,0)" fill="white" class="wordmark-text-0" id="SvgjsPath1005"></path></svg></g></svg></g></svg></g></svg></g></svg></g></svg></g></svg></g><g><path d="M229.303 0c68.262 0 123.6 55.338 123.6 123.6 0 68.262-55.338 123.6-123.6 123.6-30.402 0-58.24-10.976-79.768-29.183l11.147 0c19.26 14.022 42.974 22.294 68.621 22.295 64.458 0 116.712-52.254 116.712-116.712 0-64.458-52.254-116.712-116.712-116.712-25.647 0-49.361 8.272-68.621 22.295l-11.147 0c21.528-18.206 49.366-29.183 79.768-29.183z" fill="black" stroke="transparent"></path></g></svg></g><defs><mask></mask></defs></svg><rect width="395.52" height="247.2" fill="black" stroke="none" visibility="hidden"></rect></g></mask><linearGradient x1="0.054" x2="0.941" y1="0.5" y2="0.5" id="1e90bb17-86c5-4732-8854-39f053582af1"><stop stop-color="#864d25" offset="0"></stop><stop stop-color="#f1c4b3" offset="0.498"></stop><stop stop-color="#864d25" offset="1"></stop></linearGradient><rect width="395.52" height="247.2" fill="url(#1e90bb17-86c5-4732-8854-39f053582af1)" mask="url(#d4dea1a4-a16d-4678-9942-6132ed10cc02)" data-fill-palette-color="primary"></rect><mask id="b153f503-7535-452e-95eb-031680bd2f76"><g id="SvgjsG1031"><svg viewBox="0 0 395.52 247.2" height="247.2" width="395.52"><g><svg></svg></g><g><svg viewBox="0 0 395.52 247.2" height="247.2" width="395.52"><g transform="matrix(1,0,0,1,92.05683947909526,47.215199999999996)"><svg viewBox="0 0 211.40632104180946 152.7696" height="152.7696" width="211.40632104180946"><g><svg viewBox="0 0 211.40632104180946 152.7696" height="152.7696" width="211.40632104180946"><g><svg viewBox="0 0 211.40632104180946 152.7696" height="152.7696" width="211.40632104180946"><g><svg viewBox="0 0 211.40632104180946 152.7696" height="152.7696" width="211.40632104180946"><g id="SvgjsG1030"><svg viewBox="0 0 211.40632104180946 152.7696" height="152.7696" width="211.40632104180946" id="SvgjsSvg1029"><g><svg viewBox="0 0 211.40632104180946 152.7696" height="152.7696" width="211.40632104180946"><g transform="matrix(1,0,0,1,0,0)"><svg width="211.40632104180946" viewBox="1.46 -34.96 49.3 35.62" height="152.7696" data-palette-color="url(#1e90bb17-86c5-4732-8854-39f053582af1)"></svg></g></svg></g></svg></g></svg></g></svg></g></svg></g></svg></g><g><path d="M229.303 0c68.262 0 123.6 55.338 123.6 123.6 0 68.262-55.338 123.6-123.6 123.6-30.402 0-58.24-10.976-79.768-29.183l11.147 0c19.26 14.022 42.974 22.294 68.621 22.295 64.458 0 116.712-52.254 116.712-116.712 0-64.458-52.254-116.712-116.712-116.712-25.647 0-49.361 8.272-68.621 22.295l-11.147 0c21.528-18.206 49.366-29.183 79.768-29.183z" fill="white" stroke="transparent"></path></g></svg></g><defs><mask></mask></defs><mask><g id="SvgjsG1028"><svg viewBox="0 0 395.52 247.2" height="247.2" width="395.52"><g><svg></svg></g><g><svg viewBox="0 0 395.52 247.2" height="247.2" width="395.52"><g transform="matrix(1,0,0,1,92.05683947909526,47.215199999999996)"><svg viewBox="0 0 211.40632104180946 152.7696" height="152.7696" width="211.40632104180946"><g><svg viewBox="0 0 211.40632104180946 152.7696" height="152.7696" width="211.40632104180946"><g><svg viewBox="0 0 211.40632104180946 152.7696" height="152.7696" width="211.40632104180946"><g><svg viewBox="0 0 211.40632104180946 152.7696" height="152.7696" width="211.40632104180946"><g id="SvgjsG1027"><svg viewBox="0 0 211.40632104180946 152.7696" height="152.7696" width="211.40632104180946" id="SvgjsSvg1026"><g><svg viewBox="0 0 211.40632104180946 152.7696" height="152.7696" width="211.40632104180946"><g transform="matrix(1,0,0,1,0,0)"><svg width="211.40632104180946" viewBox="1.46 -34.96 49.3 35.62" height="152.7696" data-palette-color="url(#1e90bb17-86c5-4732-8854-39f053582af1)"><path d="M9.72-3L9.72-3Q8.96-1.54 7.5-0.49 6.03 0.56 4.27 0.56L4.27 0.56Q3.64 0.56 3.19 0.24 2.73-0.07 2.47-0.85L2.47-0.85 1.46-3.86Q1.83-4.03 2.6-4.28 3.37-4.54 4.24-5.07 5.1-5.59 5.71-6.54L5.71-6.54Q6.25-7.35 6.76-9.53 7.28-11.72 7.74-14.7 8.2-17.68 8.56-20.87 8.91-24.07 9.13-26.99 9.35-29.91 9.38-31.91L9.38-31.91 4.61-31.91 4.61-33.84Q5.05-34.08 6.14-34.34 7.23-34.59 8.52-34.78 9.81-34.96 10.82-34.96L10.82-34.96Q12.82-34.96 13.79-34.75 14.77-34.55 15.38-33.64L15.38-33.64Q16.85-30.3 18.3-26.49 19.75-22.68 21.06-18.99 22.36-15.31 23.36-12.28 24.37-9.25 24.94-7.45 25.51-5.64 25.51-5.64L25.51-5.64Q27.91-13.01 29.96-18.99 32.01-24.98 33.52-28.94 35.03-32.91 35.77-34.16L35.77-34.16Q35.74-34.2 36.4-34.4 37.06-34.59 37.98-34.78 38.89-34.96 39.62-34.96L39.62-34.96Q40.77-34.96 41.16-34.5 41.55-34.03 41.72-33.11L41.72-33.11 45.68-3.3 50.32-4 50.76-2.2Q50.07-1.54 48.66-0.88 47.24-0.22 45.62 0.22 43.99 0.66 42.63 0.66L42.63 0.66Q41.8 0.66 41 0.29 40.21-0.07 40.06-1.2L40.06-1.2 37.01-26.25Q34.77-19.78 33.14-15.28 31.52-10.79 30.41-7.91 29.3-5.03 28.6-3.39 27.91-1.76 27.55-1.04 27.2-0.32 27.06-0.16 26.93 0 26.93 0L26.93 0 24.27 0Q23.12 0 22.47-0.4 21.83-0.81 21.36-2L21.36-2Q18.16-10.52 16.33-15.84 14.5-21.17 13.73-23.66 12.96-26.15 12.96-26.15L12.96-26.15Q12.79-23.05 12.56-19.68 12.33-16.31 11.96-13.11 11.6-9.91 11.06-7.28 10.52-4.64 9.72-3Z" opacity="1" transform="matrix(1,0,0,1,0,0)" fill="black" class="wordmark-text-0" id="SvgjsPath1025"></path></svg></g></svg></g></svg></g></svg></g></svg></g></svg></g></svg></g><g><path d="M229.303 0c68.262 0 123.6 55.338 123.6 123.6 0 68.262-55.338 123.6-123.6 123.6-30.402 0-58.24-10.976-79.768-29.183l11.147 0c19.26 14.022 42.974 22.294 68.621 22.295 64.458 0 116.712-52.254 116.712-116.712 0-64.458-52.254-116.712-116.712-116.712-25.647 0-49.361 8.272-68.621 22.295l-11.147 0c21.528-18.206 49.366-29.183 79.768-29.183z" fill="black" stroke="transparent"></path></g></svg></g><defs><mask></mask></defs></svg><rect width="395.52" height="247.2" fill="black" stroke="none" visibility="hidden"></rect></g></mask></svg><rect width="395.52" height="247.2" fill="black" stroke="none" visibility="hidden"></rect></g></mask><linearGradient x1="0.054" x2="0.941" y1="0.5" y2="0.5" id="c6668cac-22ed-4fa7-b2d1-ab5cf61f1577"><stop stop-color="#864d25" offset="0"></stop><stop stop-color="#f1c4b3" offset="0.498"></stop><stop stop-color="#864d25" offset="1"></stop></linearGradient></svg><rect width="395.52" height="247.2" fill="none" stroke="none" visibility="hidden"></rect></g></svg></g></svg>